<?xml version="1.0" standalone="no"?>
<!DOCTYPE svg PUBLIC "-//W3C//DTD SVG 20010904//EN"
 "http://www.w3.org/TR/2001/REC-SVG-20010904/DTD/svg10.dtd">
<svg version="1.0" xmlns="http://www.w3.org/2000/svg"
 width="100.000000pt" height="100.000000pt" viewBox="0 0 100.000000 100.000000"
 preserveAspectRatio="xMidYMid meet">

<g transform="translate(0.000000,100.000000) scale(0.100000,-0.100000)"
fill="#000000" stroke="none">
<path d="M480 993 c-41 -14 -54 -78 -22 -106 40 -36 102 -9 102 44 0 44 -41
75 -80 62z"/>
<path d="M168 863 c-9 -2 -22 -18 -28 -34 -11 -26 -10 -34 7 -57 26 -34 65
-40 92 -13 52 52 3 124 -71 104z"/>
<path d="M760 850 c-54 -54 12 -136 80 -100 35 19 33 88 -4 112 -20 14 -56 8
-76 -12z"/>
<path d="M45 558 c-27 -15 -35 -28 -35 -59 0 -71 99 -79 122 -9 6 17 -18 70
-31 70 -5 0 -15 2 -23 5 -7 2 -22 -1 -33 -7z"/>
<path d="M910 563 c-41 -14 -54 -78 -22 -106 40 -36 102 -9 102 44 0 44 -41
75 -80 62z"/>
<path d="M159 250 c-38 -22 -31 -88 12 -110 37 -20 89 12 89 56 0 48 -58 79
-101 54z"/>
<path d="M760 240 c-28 -28 -25 -64 6 -89 15 -12 33 -21 41 -21 21 0 63 46 63
70 0 28 -35 60 -65 60 -14 0 -34 -9 -45 -20z"/>
<path d="M480 133 c-41 -15 -54 -78 -22 -106 35 -32 89 -15 104 33 6 17 -18
70 -31 70 -5 0 -15 2 -23 4 -7 3 -20 2 -28 -1z"/>
</g>
</svg>
